<?xml version="1.0" encoding="UTF-8"?>
<svg id="Capa_1" data-name="Capa 1" xmlns="http://www.w3.org/2000/svg" viewBox="0 0 28.18 32.68">
  <defs>
    <style>
      .cls-1 {
        fill: #f0e021;
      }

      .cls-1, .cls-2, .cls-3, .cls-4 {
        stroke-width: 0px;
      }

      .cls-2 {
        fill: #f5f5f5;
      }

      .cls-3 {
        fill: #e9d921;
      }

      .cls-4 {
        fill: #f0f0f0;
      }
    </style>
  </defs>
  <g>
    <path class="cls-4" d="M20.56,28.88c-.27.09-.48.29-.75.37-.1.03-.22.04-.23.18h0c-.07,0-.14,0-.14.09,0,0,0,0,0,0-.07,0-.13,0-.14.09-.26.14-.52.28-.78.42-.15.03-.31.03-.34.23,0,0,0,0,0,0-.04,0-.08,0-.09.05,0,0,0,0,0,0-.08,0-.15,0-.19.09h0c-.07,0-.14,0-.14.09h0c-.12,0-.22.03-.28.14h0c-.07,0-.14,0-.14.09h0c-.08,0-.15,0-.19.09,0,0,0,0,0,0-.1.03-.24.01-.23.18,0,0,0,0,0,0-.12,0-.22.03-.28.14,0,0,0,0,0,0-.02.02-.03.03-.05.05h0c-.09,0-.19-.01-.24.09l-.2.05c0-.65-.02-1.31-.02-1.96,0-1.91,0-3.82,0-5.74,0-1.95,0-3.9,0-5.85,0-.09-.04-.19.07-.25.14-.07.27-.18.4-.26.48-.28.96-.55,1.44-.82.82-.47,1.66-.93,2.47-1.43.48-.29.99-.52,1.46-.83.38-.25.79-.44,1.18-.67.9-.53,1.81-1.04,2.71-1.56.61-.35,1.22-.7,1.84-1.05.15-.09.33-.14.46-.26,0,.12,0,.25,0,.37-.06.05-.04.11-.04.17,0,.58,0,1.17,0,1.75,0,.48,0,.96,0,1.44,0,.2.03.41-.04.61-.09.06-.17.13-.26.18-.42.24-.85.45-1.25.72-.43.29-.92.49-1.35.78-.42.28-.88.5-1.31.75-.87.5-1.74.99-2.6,1.5-.66.39-1.33.76-2,1.13-.12.07-.25.13-.36.2-.23.13-.38.28-.34.59.04.38.01.78.01,1.16,0,.35,0,.69,0,1.07.33-.18.61-.35.9-.52.86-.5,1.73-1,2.59-1.5.87-.51,1.76-1,2.63-1.52.53-.32,1.08-.61,1.62-.92.19-.11.38-.21.56-.32.39-.22.75-.5,1.18-.66.08.07.05.17.05.26,0,.91,0,1.81,0,2.72-.02.44.04.88-.05,1.32-.44.21-.87.43-1.28.71-.43.29-.9.52-1.35.78-.61.36-1.22.73-1.85,1.06-.17.09-.22.19-.21.37,0,.75,0,1.51,0,2.26-.08.07-.15.15-.23.22-.07,0-.11.03-.14.09h0c-.07,0-.14,0-.14.09h0s-.08,0-.09.05c0,0,0,0,0,0-.08,0-.15,0-.19.09h0c-.07,0-.14,0-.14.09,0,0,0,0,0,0-.13.01-.26.02-.28.18h0c-.07,0-.14,0-.14.09h0c-.08,0-.15,0-.19.09h0s-.08,0-.09.05h0c-.07,0-.14,0-.14.09h0c-.12,0-.22.03-.28.14,0,0,0,0,0,0-.02.02-.03.03-.05.05h0c-.21,0-.36.1-.47.27h0c-.07,0-.14,0-.14.09h0c-.07,0-.13,0-.14.08Z"/>
    <path class="cls-3" d="M28.17,10.65c-.13.12-.31.17-.46.26-.62.35-1.23.7-1.84,1.05-.9.52-1.81,1.03-2.71,1.56-.39.23-.8.43-1.18.67-.47.31-.98.54-1.46.83-.81.49-1.64.95-2.47,1.43-.48.28-.96.55-1.44.82-.13.08-.26.18-.4.26-.11.06-.07.16-.07.25,0,1.95,0,3.9,0,5.85,0,1.91,0,3.82,0,5.74,0,.65.01,1.31.02,1.96-.04.03-.08.08-.08.13h0s-.08.01-.09.06c-.66.39-1.32.78-1.98,1.17-.05,0-.1,0-.15,0,0,0,0,0,0,0,0-.06,0-.13.01-.19.04-.05.03-.12.03-.17,0-1.55,0-3.1,0-4.65,0-.07.02-.14-.04-.19,0-.08,0-.15-.01-.23,0-.67,0-1.34,0-2.01,0-.67,0-1.34,0-2.01v-1.97c0-1.68,0-3.36,0-5.04.27-.23.58-.4.88-.56.76-.4,1.5-.85,2.25-1.27.88-.49,1.75-.99,2.62-1.49.87-.5,1.75-1,2.61-1.5.43-.25.89-.47,1.3-.74.44-.29.93-.51,1.38-.78.86-.52,1.73-1.02,2.62-1.5.16-.09.3-.21.46-.29.18-.08.2-.03.2.13,0,.78,0,1.55,0,2.33,0,.04,0,.08,0,.11Z"/>
    <path class="cls-3" d="M23.38,27.11c0-.75.01-1.51,0-2.26,0-.18.05-.29.21-.37.63-.33,1.24-.7,1.85-1.06.45-.26.92-.49,1.35-.78.41-.27.84-.5,1.28-.71,0,.74,0,1.47,0,2.21,0,.19-.02.34-.19.45,0,0,0,0,0,0-.04,0-.07.01-.08.05,0,0-.01,0-.01,0-.02.01-.04.02-.06.03-.81.47-1.62.93-2.42,1.41-.56.33-1.12.66-1.7.97-.08.02-.17.03-.25.05Z"/>
    <path class="cls-3" d="M28.08,14.98c.06.07.04.14.04.22,0,.73,0,1.46,0,2.19,0,.08-.03.16-.04.25-.42.17-.78.45-1.18.66-.19.1-.38.21-.56.32-.54.31-1.08.61-1.62.92-.87.52-1.75,1.01-2.63,1.52-.86.5-1.73,1-2.59,1.5-.29.17-.58.34-.9.52,0-.38,0-.72,0-1.07,0-.39.03-.78-.01-1.16-.03-.3.12-.46.34-.59.12-.07.24-.13.36-.2.67-.38,1.34-.74,2-1.13.86-.51,1.74-1,2.6-1.5.44-.25.89-.48,1.31-.75.44-.29.92-.49,1.35-.78.4-.27.84-.47,1.25-.72.09-.05.17-.12.26-.18Z"/>
  </g>
  <g>
    <path class="cls-1" d="M25.85,9.37c0-.12-.11-.14-.18-.19-2.68-1.54-5.35-3.08-8.03-4.62-1.14-.66-2.28-1.31-3.42-1.98-.1-.06-.17-.06-.27,0-1.53.89-3.07,1.77-4.61,2.65-1.65.95-3.3,1.9-4.94,2.84-.65.37-1.29.75-1.94,1.12-.12.07-.23.15-.38.13,0,0-.02-.01-.02-.01-.02-.04-.05-.06-.1-.05-.6-.35-1.2-.71-1.81-1.06-.2-.11-.19-.18,0-.29,1.92-1.1,3.85-2.21,5.77-3.32,2.36-1.36,4.71-2.71,7.07-4.07.23-.13.48-.25.7-.4.27-.19.5-.17.78,0,4.44,2.57,8.89,5.12,13.34,7.68.12.07.33.12.34.25,0,.16-.21.2-.34.27-.56.33-1.12.64-1.69.96-.08.04-.16.1-.26.08Z"/>
    <path class="cls-2" d="M25.85,9.37c0,.07-.01.13-.1.17-.43.21-.84.47-1.25.72-.42.26-.86.48-1.29.72-.4.23-.79.5-1.2.71-.52.27-.97.66-1.53.88-.32.12-.59.37-.88.55-.24.14-.47.29-.72.41-.34.16-.64.4-.98.55-.3.13-.54.34-.84.47-.28.13-.53.32-.82.47-.33.17-.64.39-.97.57-.36.2-.72.4-1.07.61-.17.1-.27.05-.39-.03-.4-.25-.8-.49-1.21-.72-.47-.27-.92-.56-1.4-.82-.68-.37-1.32-.8-1.99-1.16-.72-.4-1.44-.8-2.15-1.22-.79-.47-1.59-.92-2.38-1.39-.84-.49-1.65-1.02-2.54-1.44-.05-.02-.08-.05-.09-.1.15.02.26-.07.38-.13.65-.37,1.29-.75,1.94-1.12,1.65-.95,3.29-1.9,4.94-2.84,1.54-.88,3.07-1.76,4.61-2.65.11-.06.17-.06.27,0,1.14.66,2.28,1.32,3.42,1.98,2.68,1.54,5.35,3.08,8.03,4.62.08.04.18.07.18.19Z"/>
  </g>
  <path class="cls-3" d="M14.16.06c.1.04.1.13.1.22,0,.74,0,1.47,0,2.21,0,.11-.04.17-.13.22-1.34.76-2.67,1.53-4.01,2.29-.7.4-1.41.78-2.09,1.21-1.5.95-3.07,1.77-4.6,2.67-.93.54-1.87,1.08-2.8,1.62-.09.05-.17.11-.25.17-.01-.09-.08-.18-.04-.28.08-.25.02-.5.04-.75,0-.16.01-.33,0-.49-.02-.29.04-.59-.04-.87-.06-.2.08-.28.22-.36.77-.44,1.56-.86,2.32-1.33,1.98-1.22,4.03-2.32,6.04-3.49.53-.31,1.07-.58,1.58-.91,1.1-.71,2.25-1.31,3.38-1.97.09-.06.19-.1.29-.15Z"/>
  <g>
    <path class="cls-2" d="M11.48,31.25c-.19-.1-.36-.23-.55-.32-.39-.19-.73-.47-1.12-.67-.35-.18-.66-.41-.99-.62-.15-.09-.32-.15-.47-.25-.33-.23-.68-.42-1.02-.63-.02-.07-.07-.1-.14-.1h0c0-.09-.07-.1-.14-.09h0s-.03-.03-.05-.05c0,0,0,0,0,0-.06-.11-.16-.14-.27-.14,0,0,0,0,0,0-.02-.04-.05-.05-.09-.05,0,0,0,0,0,0-.02-.02-.03-.03-.05-.05,0,0,0,0,0,0-.02-.04-.05-.05-.09-.05,0,0,0,0,0,0-.03-.09-.1-.1-.18-.09,0,0,0,0,0,0-.02-.04-.05-.05-.09-.05,0,0,0,0,0,0-.02-.02-.03-.03-.05-.05h0s-.06-.05-.1-.05c-.19-.08-.35-.21-.53-.31-.52-.29-1.03-.59-1.53-.91-.47-.31-.99-.53-1.44-.88-.19-.15-.43-.25-.65-.39-.03-.09-.07-.16-.18-.14h0s-.05-.05-.09-.05h0s-.03-.03-.05-.05c0,0,0,0,0,0-.02-.04-.05-.05-.09-.05,0,0,0,0,0,0-.03-.09-.1-.1-.18-.09,0,0,0,0,0,0-.02-.04-.05-.05-.09-.05,0,0,0,0,0,0-.02-.02-.03-.03-.05-.05,0,0,0,0,0,0-.02-.04-.05-.05-.09-.05,0,0,0,0,0,0,0-.06-.02-.12-.09-.05-.34-.13-.6-.4-.93-.56-.08-.04-.07-.13-.07-.2,0-.47,0-.94,0-1.42.06-.05.04-.12.04-.19,0-.54,0-1.08,0-1.62,0-2.59,0-5.19,0-7.78,0-.57,0-1.14,0-1.71,0-.06.02-.14-.04-.19,0-.23,0-.47,0-.7.03-.71-.07-1.43-.05-2.14,0-.08-.03-.17.04-.24.1-.07,0-.21.09-.27h0c.06.11.16.14.27.14,0,0,0,0,0,0,0,.06.03.09.09.09,0,0,0,0,0,0,.04.15.16.14.27.14,0,0,0,0,0,0,.02.13.13.13.23.14h0c.01.12.11.09.18.09h0s.05.05.09.05c0,0,0,0,0,0,.11.14.2.29.41.27,0,0,0,0,0,0,.02.04.05.05.09.05,0,0,0,0,0,0,.03.13.13.13.23.14.14.13.33.17.49.27,0,.14.08.14.19.14h0s.05.05.09.05c0,0,0,0,0,0,0,.1.07.09.14.09,0,0,0,0,0,0,.03.09.1.1.18.09,0,0,0,0,0,0,.02.04.05.05.09.05,0,0,0,0,0,0,.02.02.03.03.05.05h0c.03.08.1.1.18.09h0c.03.08.1.1.18.09,0,0,0,0,0,0,.02.02.03.03.05.05h0c.04.13.14.18.27.18,0,0,0,0,0,0,.06.11.16.14.27.14,0,0,0,0,0,0,.09.16.23.23.41.23,0,0,0,0,0,0,.02.04.05.05.09.05,0,0,0,0,0,0,0,.09.07.09.14.09h0c0,.09.05.13.13.14.29.15.57.3.86.45.04.08.07.16.19.14h0s.05.05.09.05c0,0,0,0,0,0,.02.04.05.05.09.05h0c0,.09.07.09.14.09,0,0,0,0,0,0,.03.09.1.1.18.09h0s.05.05.09.05c0,0,0,0,0,0,.02.02.03.03.05.05h0c.03.08.1.1.18.09,0,0,0,0,0,0,.03.13.15.18.22.27,0,.79,0,1.58,0,2.37,0,.14.04.22.16.28.3.16.59.34.89.52.7.42,1.4.83,2.1,1.25.47.28.94.57,1.43.83.12.06.17.13.17.28,0,.95,0,1.9,0,2.85,0,3.59-.02,7.17-.02,10.76-.07,0-.13-.02-.18-.07-.06-.06-.05,0-.06.03Z"/>
    <path class="cls-1" d="M11.73,31.28c0-3.59.02-7.17.02-10.76,0-.95,0-1.9,0-2.85,0-.14-.05-.21-.17-.28-.49-.26-.96-.55-1.43-.83-.7-.42-1.4-.82-2.1-1.25-.29-.18-.59-.36-.89-.52-.12-.07-.16-.14-.16-.28,0-.79,0-1.58,0-2.37.06,0,.13,0,.19,0,0,0,0,0,0,0,.02.04.05.05.09.04,0,0,0,0,0,0,.02.03.05.05.09.05,0,0,0,0,0,0,.02.03.05.05.09.05,0,0,0,0,0,0,.02.04.06.05.1.05.49.29.98.58,1.47.87.72.42,1.44.85,2.16,1.28.31.18.62.36.93.54.6.36,1.19.72,1.78,1.07.13.08.11.2.1.32-.07.07-.04.16-.04.24,0,1.43,0,2.86,0,4.29,0,.66,0,1.33,0,1.99,0,.62,0,1.24,0,1.86,0,.48,0,.96,0,1.44,0,1.43,0,2.87-.01,4.3-.08.22-.03.44-.03.66,0,.39-.04.79.03,1.18h.02c-.02.1.05.24-.05.28-.1.04-.21-.06-.3-.12-.51-.36-1.08-.62-1.59-.97-.02-.01-.03-.02-.05-.04,0,0,0,0,0,0-.02-.04-.04-.05-.08-.05,0,0,0,0,0,0-.02-.04-.04-.05-.08-.04,0,0,0,0,0,0,0-.06-.03-.1-.07-.13Z"/>
  </g>
</svg>