<?xml version="1.0" encoding="UTF-8"?>
<svg id="Capa_1" data-name="Capa 1" xmlns="http://www.w3.org/2000/svg" viewBox="0 0 424.26 491.08">
  <defs>
    <style>
      .cls-1 {
        fill: #fff;
      }

      .cls-1, .cls-2, .cls-3, .cls-4, .cls-5 {
        stroke-width: 0px;
      }

      .cls-2 {
        fill: #000;
      }

      .cls-3 {
        fill: #000;
      }

      .cls-4 {
        fill: #fff;
      }

      .cls-5 {
        fill: #000;
      }
    </style>
  </defs>
  <g>
    <polygon class="cls-1" points="388.91 143.42 424.26 123.01 212.13 .54 0 123.01 35.36 143.42 212.13 41.36 388.91 143.42 388.91 143.42"/>
    <polygon class="cls-3" points="212.13 245.49 388.91 143.42 212.13 41.36 35.36 143.42 212.13 245.49 212.13 245.49"/>
  </g>
  <g>
    <polygon class="cls-5" points="424.03 225.72 424.03 164.48 211.9 286.96 211.9 450.26 424.03 327.78 424.03 266.55 317.97 327.78 317.97 286.96 424.03 225.72 424.03 225.72"/>
    <polygon class="cls-4" points="424.03 164.48 424.03 123.66 211.9 246.13 211.9 286.96 424.03 164.48 424.03 164.48"/>
    <polygon class="cls-4" points="424.03 327.78 211.9 450.26 211.9 491.08 424.03 368.61 424.03 327.78 424.03 327.78"/>
    <polygon class="cls-4" points="424.03 266.55 424.03 225.72 317.97 286.96 317.97 327.78 424.03 266.55 424.03 266.55"/>
  </g>
  <polygon class="cls-4" points="213.1 40.82 213.1 0 .97 122.47 .97 163.3 213.1 40.82 213.1 40.82"/>
  <g>
    <polygon class="cls-2" points="177.01 470.67 177.01 266.55 106.3 225.72 106.3 184.9 35.59 144.07 35.59 389.02 177.01 470.67 177.01 470.67"/>
    <polygon class="cls-1" points="212.36 491.08 212.36 246.13 106.3 184.9 106.3 225.72 177.01 266.55 177.01 470.67 212.36 491.08 212.36 491.08"/>
    <polygon class="cls-1" points="35.55 144.09 35.55 389.04 .19 368.63 .19 123.68 35.55 144.09 35.55 144.09"/>
  </g>
</svg>