<?xml version="1.0" encoding="UTF-8"?>
<svg id="Capa_1" data-name="Capa 1" xmlns="http://www.w3.org/2000/svg" viewBox="0 0 313.25 273.29">
  <defs>
    <style>
      .cls-1 {
        fill: #7f390b;
      }

      .cls-1, .cls-2, .cls-3 {
        stroke-width: 0px;
      }

      .cls-2 {
        fill: #c19a6b;
      }

      .cls-3 {
        fill: #f0e021;
      }
    </style>
  </defs>
  <path class="cls-1" d="M0,243.48V28.71c1.1-.56.86-1.74,1.13-2.64C5.3,12.09,14.57,3.32,28.8.7c14.91-2.75,27.02,2.69,35.87,14.98,1.4,1.94,2.69,2.73,5.09,2.73,78-.07,156.01-.05,234.01-.05,7.24,0,9.48,2.24,9.48,9.47,0,78.83,0,157.65,0,236.48,0,7.13-1.87,8.98-9.1,8.98-54.76,0-109.51,0-164.27,0-33.95,0-67.91.03-101.86-.01-17.44-.02-31.48-9.87-36.46-25.36-.48-1.48-.23-3.24-1.55-4.44ZM167.95,261.03c43.23,0,86.46-.03,129.69.07,2.86,0,3.43-.79,3.43-3.51-.08-74.54-.08-149.08,0-223.61,0-2.76-.66-3.46-3.44-3.46-74.43.08-148.86.08-223.29,0-2.79,0-4.22.34-3.47,3.52.28,1.16.11,2.44.11,3.66,0,65.57,0,131.13,0,196.7,0,.92.05,1.84-.05,2.75-.36,3.33-2.6,5.58-5.68,5.75-3.3.19-5.76-1.81-6.38-5.28-.29-1.6-.28-3.26-.61-4.85-2.01-9.68-7.81-16.08-17.32-18.51-9.16-2.35-17.24.2-23.36,7.52-6.37,7.63-7.12,16.41-3.09,25.2,4.62,10.08,13.32,14.04,24.06,14.04,43.13,0,86.26,0,129.39,0ZM12.25,209.67c4.61-3.63,9.09-6.21,14.24-7.22,2.43-.48,3.19-1.39,3.18-3.97-.1-43.94-.07-87.88-.06-131.82,0-1.42.07-2.86.36-4.24.7-3.33,3.77-5.19,7.11-4.45,3.4.76,4.76,3.02,4.76,8.04,0,39.25,0,78.5,0,117.75,0,5.3.01,10.6,0,15.9,0,1.14-.12,2.18,1.44,2.52,5.63,1.22,10.6,3.87,15.47,7.82,0-1.37,0-2.25,0-3.12,0-56.48,0-112.96,0-169.43,0-1.02,0-2.04-.08-3.06-1.43-17.89-20.1-27.8-35.46-18.67-7.88,4.69-10.99,12.06-10.98,21.11.06,56.68.03,113.36.03,170.05v2.79Z"/>
  <path class="cls-2" d="M167.95,261.03c-43.13,0-86.26,0-129.39,0-10.74,0-19.45-3.96-24.06-14.04-4.03-8.8-3.28-17.58,3.09-25.2,6.11-7.32,14.2-9.86,23.36-7.52,9.51,2.44,15.31,8.84,17.32,18.51.33,1.59.32,3.25.61,4.85.62,3.47,3.09,5.47,6.38,5.28,3.07-.17,5.32-2.42,5.68-5.75.1-.91.05-1.83.05-2.75,0-65.57,0-131.13,0-196.7,0-1.22.17-2.5-.11-3.66-.75-3.18.68-3.52,3.47-3.52,74.43.08,148.86.08,223.29,0,2.79,0,3.45.69,3.44,3.46-.08,74.54-.08,149.08,0,223.61,0,2.71-.57,3.52-3.43,3.51-43.23-.1-86.46-.07-129.69-.07ZM154.9,69.93c-.27-.11-.54-.23-.8-.34,0-1.18,0-2.36,0-3.54-.02-6.24-2.2-8.43-8.45-8.44-6.53-.01-13.05-.02-19.58,0-5.94.02-8.07,2.16-8.07,8.1-.01,12.75-.03,25.49.03,38.24,0,1.65-.45,2.82-1.65,3.99-5.55,5.41-11.02,10.9-16.47,16.4-1.86,1.87-2.63,4.12-1.62,6.7,1.04,2.68,3.16,3.92,5.94,4.03,2.04.09,4.09.19,6.11-.01,2.64-.26,3.55.42,3.53,3.35-.14,24.47-.08,48.95-.08,73.42,0,5.8,2.09,7.88,7.94,7.88,40.79,0,81.57,0,122.36,0,5.99,0,8.01-2.06,8.01-8.12,0-22.84,0-45.68,0-68.53,0-2.53-.86-5.9.41-7.38,1.49-1.73,4.96-.53,7.57-.54,3.29-.01,6.16-.66,7.5-4.04,1.29-3.26-.38-5.61-2.61-7.82-25.45-25.31-50.86-50.66-76.29-75.99-4.26-4.24-7.22-4.26-11.44,0-7.47,7.52-14.9,15.09-22.34,22.64ZM273.28,230.74h-4.11c-58.41,0-116.81,0-175.22,0-.82,0-1.63-.03-2.45,0-4.22.19-6.99,2.62-7.03,6.12-.04,3.67,2.74,6.03,7.23,6.11.71.01,1.43,0,2.14,0h179.16c-.05.55-.03.86-.11,1.13-1.05,3.57-.3,6.09,2.3,7.72,2.53,1.58,5.44,1.17,8.02-1.31,3.01-2.9,5.98-5.84,8.85-8.88,2.88-3.06,2.96-6.24.16-9.23-2.99-3.2-6.15-6.25-9.28-9.31-.79-.77-1.7-1.41-2.83-1.73-2.26-.64-4.27-.18-5.92,1.41-2.27,2.18-2.38,4.81-.93,7.97Z"/>
  <path class="cls-3" d="M58.74,37.44v172.56c-4.87-3.96-9.83-6.61-15.47-7.83-1.55-.33-1.44-1.37-1.43-2.51.02-5.31,0-10.61,0-15.91,0-39.25,0-78.5,0-117.75,0-5.01-1.36-7.28-4.76-8.04-3.34-.74-6.4,1.12-7.11,4.46-.29,1.37-.35,2.82-.35,4.24-.02,43.94-.05,87.88.05,131.81.01,2.59-.75,3.5-3.18,3.98-5.15,1.01-9.63,3.58-14.24,7.22v-2.79c0-56.69.03-113.37-.03-170.05-.01-9.05,3.09-16.43,10.97-21.11,15.37-9.14,34.04.78,35.47,18.67.08,1.01.08,2.03.08,3.05Z"/>
  <path class="cls-1" d="M154.9,69.93c7.45-7.55,14.87-15.12,22.34-22.64,4.22-4.25,7.19-4.23,11.44,0,25.43,25.33,50.84,50.68,76.29,75.99,2.23,2.22,3.9,4.56,2.61,7.82-1.34,3.38-4.21,4.03-7.5,4.04-2.6.01-6.07-1.19-7.57.54-1.28,1.48-.41,4.85-.41,7.38-.01,22.84,0,45.68,0,68.53,0,6.06-2.02,8.12-8.01,8.12-40.79,0-81.57,0-122.36,0-5.85,0-7.94-2.08-7.94-7.88,0-24.47-.06-48.95.08-73.42.02-2.93-.89-3.61-3.53-3.35-2.02.2-4.08.1-6.11.01-2.78-.12-4.89-1.36-5.94-4.03-1.01-2.58-.24-4.83,1.62-6.7,5.46-5.5,10.92-10.99,16.47-16.4,1.2-1.17,1.66-2.34,1.65-3.99-.06-12.75-.04-25.49-.03-38.24,0-5.94,2.14-8.08,8.07-8.1,6.53-.02,13.05-.01,19.58,0,6.25.01,8.43,2.2,8.45,8.44,0,1.18,0,2.36,0,3.54.27.11.54.23.8.34ZM183.15,135.11c-18.14,0-36.29,0-54.43-.01-1.58,0-2.78-.24-2.76,2.23.12,22.63.1,45.26.02,67.89,0,1.97.6,2.31,2.4,2.3,9.68-.09,19.37-.15,29.05.03,2.57.05,2.91-.85,2.89-3.08-.1-11.31-.06-22.63-.04-33.94,0-5.31,2.29-7.64,7.62-7.67,9.99-.05,19.98-.04,29.97,0,5.5.02,7.73,2.31,7.73,7.85.01,11.32.07,22.63-.05,33.94-.02,2.21.41,2.93,2.79,2.89,9.58-.16,19.16-.14,28.74,0,2.26.03,2.85-.49,2.84-2.81-.1-22.22-.1-44.44,0-66.67,0-2.32-.49-3.03-2.94-3.01-17.94.12-35.88.06-53.82.06ZM246.35,122.73c.19-.91-.5-1.18-.89-1.56-20.28-20.22-40.6-40.4-60.82-60.68-1.63-1.63-2.33-1-3.56.22-20.05,20.02-40.14,40-60.19,60.01-.56.56-1.69.91-1.33,2.01h126.78ZM172.51,191.47c0,4.58.05,9.16-.03,13.74-.03,1.57.17,2.35,2.07,2.31,5.6-.13,11.2-.1,16.79-.01,1.57.03,2.08-.37,2.06-2.01-.08-9.47-.07-18.94,0-28.4.01-1.62-.49-2.07-2.08-2.04-5.6.09-11.2.09-16.79,0-1.62-.03-2.08.48-2.05,2.07.09,4.78.03,9.57.03,14.35ZM130.24,93.39c.22.13.44.25.66.38,3.44-3.53,6.89-7.06,10.32-10.61.27-.28.59-.68.59-1.03-.01-3.96-.08-7.92-.14-11.87-2.87-.92-5.83-.17-8.73-.4-.4-.03-.82.03-1.22,0-1.02-.09-1.48.31-1.48,1.38.02,7.39.01,14.77.01,22.16Z"/>
  <path class="cls-1" d="M273.28,230.74c-1.45-3.16-1.35-5.79.93-7.97,1.65-1.58,3.66-2.05,5.92-1.41,1.12.32,2.04.96,2.83,1.73,3.13,3.07,6.29,6.11,9.28,9.31,2.8,3,2.72,6.18-.16,9.23-2.87,3.04-5.84,5.98-8.85,8.88-2.58,2.49-5.5,2.9-8.02,1.31-2.6-1.63-3.35-4.15-2.3-7.72.08-.27.06-.58.11-1.13H93.84c-.71,0-1.43.01-2.14,0-4.49-.09-7.27-2.44-7.23-6.11.04-3.5,2.81-5.93,7.03-6.12.81-.04,1.63,0,2.45,0,58.41,0,116.81,0,175.22,0h4.11Z"/>
  <path class="cls-3" d="M183.15,135.11c17.94,0,35.88.05,53.82-.06,2.45-.02,2.95.69,2.94,3.01-.09,22.22-.09,44.44,0,66.67.01,2.32-.58,2.84-2.84,2.81-9.58-.14-19.16-.15-28.74,0-2.38.04-2.81-.68-2.79-2.89.12-11.31.06-22.63.05-33.94,0-5.54-2.23-7.83-7.73-7.85-9.99-.04-19.98-.04-29.97,0-5.33.03-7.61,2.35-7.62,7.67-.02,11.32-.06,22.63.04,33.94.02,2.23-.32,3.12-2.89,3.08-9.68-.18-19.37-.12-29.05-.03-1.8.02-2.41-.33-2.4-2.3.08-22.63.1-45.26-.02-67.89-.01-2.47,1.18-2.23,2.76-2.23,18.14.02,36.29.01,54.43.01Z"/>
  <path class="cls-2" d="M246.35,122.73h-126.78c-.36-1.11.77-1.46,1.33-2.01,20.05-20.02,40.14-40,60.19-60.01,1.22-1.22,1.93-1.85,3.56-.22,20.22,20.28,40.54,40.46,60.82,60.68.39.39,1.08.65.89,1.56Z"/>
  <path class="cls-2" d="M172.51,191.47c0-4.78.06-9.57-.03-14.35-.03-1.59.43-2.1,2.05-2.07,5.6.09,11.2.09,16.79,0,1.59-.03,2.09.43,2.08,2.04-.07,9.47-.07,18.94,0,28.4.01,1.64-.49,2.03-2.06,2.01-5.6-.09-11.2-.12-16.79.01-1.9.05-2.1-.74-2.07-2.31.08-4.58.03-9.16.03-13.74Z"/>
  <path class="cls-3" d="M130.24,93.39c0-7.39,0-14.78-.01-22.16,0-1.06.46-1.47,1.48-1.38.4.03.82-.02,1.22,0,2.91.23,5.86-.52,8.73.4.05,3.96.12,7.92.14,11.87,0,.34-.32.75-.59,1.03-3.43,3.55-6.87,7.08-10.32,10.61-.22-.13-.44-.25-.66-.38Z"/>
</svg>