<?xml version="1.0" encoding="UTF-8"?>
<svg id="Capa_1" data-name="Capa 1" xmlns="http://www.w3.org/2000/svg" viewBox="0 0 347.21 347.18">
  <defs>
    <style>
      .cls-1 {
        fill: #7f390b;
      }

      .cls-1, .cls-2, .cls-3, .cls-4, .cls-5 {
        stroke-width: 0px;
      }

      .cls-2, .cls-4 {
        fill: #f0e021;
      }

      .cls-3, .cls-5 {
        fill: #c19a6b;
      }
    </style>
  </defs>
  <path class="cls-5" d="M71.93,53.8c67.78,0,135.55,0,203.33,0,.03.37.09.74.09,1.12,0,52.48-.03,104.97.1,157.45,0,3.34-1.62,3.13-3.86,3.13-65.32-.02-130.65-.04-195.97.06-3.17,0-3.86-.88-3.85-3.93.12-31.79.06-63.58.08-95.37.01-20.82.06-41.63.09-62.45Z"/>
  <path class="cls-1" d="M71.93,53.8c-.03,20.82-.08,41.63-.09,62.45-.02,31.79.04,63.58-.08,95.37-.01,3.05.67,3.94,3.85,3.93,65.32-.1,130.65-.08,195.97-.06,2.24,0,3.86.22,3.86-3.13-.12-52.48-.09-104.97-.1-157.45,0-.37-.06-.74-.09-1.12,1.73-6.41,5.69-7.64,11.27-3.49.84,2.13.81,4.36.81,6.61-.01,53.22,0,106.44-.04,159.65,0,2.3.43,4.35,1.48,6.42,14.85,29.59,29.63,59.21,44.45,88.81.45.9.63,2.09,1.99,2.68v-2.77c0-98.83,0-197.67,0-296.5,0-1.11-.14-2.23-.21-3.34.08-1.99.1-3.98.24-5.97.26-3.51,2.76-5.93,6.01-5.9,3.25.03,5.67,2.46,5.91,6.01.08,1.12.02,2.24.02,3.37,0,109.49,0,218.98,0,328.47,0,7.88-1.47,9.34-9.37,9.34-109.61,0-219.23,0-328.84,0-7.39,0-8.99-1.59-8.99-8.96C0,228.48,0,118.74,0,9,0,2.86,1.86.04,5.93,0c4.06-.04,5.97,2.77,6.06,8.89.01.99.14,1.98.21,2.98-.07,1.11-.21,2.23-.21,3.34,0,98.84-.01,197.69,0,296.53,0,.87-.33,1.87.49,2.84.4-.72.72-1.24.99-1.78,15.08-30.16,30.15-60.33,45.28-90.46.94-1.88,1.12-3.75,1.12-5.76-.02-53.35,0-106.7-.03-160.04,0-2.13.06-4.22.81-6.23,5.59-4.13,9.53-2.91,11.27,3.5ZM132.75,335.2c10.58,0,21.16-.06,31.74.05,2.38.03,3.23-.56,3.18-3.08-.16-7.34-.12-14.69-.02-22.03.03-2.06-.54-2.82-2.71-2.81-19.29.07-38.59.06-57.88,0-1.93,0-2.81.52-3.28,2.54-1.68,7.26-3.49,14.49-5.48,21.67-.87,3.12.11,3.75,3.09,3.71,10.45-.15,20.91-.06,31.37-.06ZM214.79,335.2c10.46,0,20.91-.07,31.36.05,2.6.03,3.61-.47,2.84-3.31-1.99-7.31-3.86-14.66-5.58-22.03-.47-2-1.3-2.58-3.26-2.57-19.29.06-38.58.06-57.88,0-2.14,0-2.77.69-2.74,2.78.1,7.34.14,14.69-.02,22.03-.05,2.48.73,3.14,3.15,3.11,10.7-.12,21.41-.05,32.11-.05ZM15.71,335.2c22.86,0,45.03-.02,67.19.04,1.75,0,2.36-.67,2.74-2.24,1.86-7.73,3.75-15.47,5.8-23.15.59-2.21-.16-2.5-2.07-2.49-19.18.04-38.37.03-57.55.01-1.32,0-2.35.17-3.03,1.56-4.22,8.58-8.51,17.12-13.08,26.28ZM331.45,335.2c-4.61-9.21-8.95-17.86-13.24-26.53-.64-1.29-1.67-1.29-2.8-1.29-19.31,0-38.62.02-57.93-.02-1.93,0-2.26.55-1.77,2.41,2.02,7.69,3.92,15.42,5.76,23.16.43,1.79,1.29,2.31,3.08,2.31,22.04-.05,44.09-.03,66.91-.03ZM137.39,295.4c9.09,0,18.19-.06,27.28.04,2.22.03,3.07-.55,3.03-2.91-.13-7.47-.13-14.95,0-22.42.04-2.31-.71-2.96-2.98-2.95-15.82.09-31.64.09-47.46,0-2.18-.01-3.05.77-3.53,2.81-1.73,7.38-3.47,14.77-5.51,22.07-.79,2.84-.1,3.44,2.64,3.4,8.84-.12,17.69-.05,26.53-.05ZM209.39,295.4c8.97,0,17.93-.05,26.9.03,2.52.02,3.63-.29,2.77-3.32-2.06-7.29-3.84-14.67-5.52-22.06-.53-2.33-1.62-2.9-3.84-2.89-15.69.08-31.38.08-47.07,0-2.15,0-3.12.42-3.07,2.86.14,7.47.17,14.94,0,22.41-.06,2.68,1.08,3.02,3.32,3,8.84-.09,17.68-.04,26.52-.04ZM65.37,295.44c8.97,0,17.93-.06,26.9.04,2.13.02,3.07-.67,3.56-2.77,1.75-7.5,3.61-14.98,5.61-22.42.64-2.37.12-3.09-2.34-3.07-15.69.07-31.38.06-47.07,0-1.73,0-2.69.55-3.46,2.12-3.82,7.82-7.69,15.63-11.69,23.37-1.34,2.6-.31,2.79,1.97,2.77,8.84-.08,17.68-.03,26.53-.03ZM281.32,295.4c9.09,0,18.18-.04,27.27.03,2.2.02,3-.31,1.8-2.65-3.98-7.74-7.85-15.54-11.69-23.35-.73-1.5-1.54-2.27-3.36-2.26-15.81.07-31.62.07-47.43,0-2.35,0-2.69.78-2.13,2.91,1.97,7.45,3.86,14.92,5.6,22.42.52,2.24,1.5,2.99,3.8,2.95,8.71-.13,17.43-.05,26.14-.05ZM142.49,255.28c7.36,0,14.72-.06,22.07.04,2.11.03,3.15-.34,3.1-2.82-.15-7.48-.14-14.97,0-22.45.04-2.27-.87-2.65-2.86-2.64-12.59.07-25.19.08-37.79-.01-2.01-.02-2.85.66-3.3,2.53-1.79,7.51-3.59,15.01-5.6,22.46-.66,2.44-.09,2.97,2.31,2.93,7.36-.13,14.71-.05,22.07-.05ZM204.69,255.28c7.46,0,14.93-.03,22.39.02,1.84.01,2.7-.18,2.09-2.46-2.06-7.67-3.93-15.39-5.77-23.12-.43-1.81-1.3-2.3-3.08-2.29-12.69.06-25.38.08-38.06,0-2.14-.01-2.75.66-2.72,2.76.11,7.46.11,14.93,0,22.39-.03,2.12.65,2.79,2.76,2.76,7.46-.1,14.93-.04,22.39-.04ZM80.5,255.28c7.23,0,14.45-.05,21.68.04,2.01.02,3.08-.38,3.6-2.64,1.69-7.39,3.63-14.73,5.56-22.06.63-2.4.08-3.25-2.57-3.22-12.21.12-24.42.09-36.63.02-1.86-.01-2.93.54-3.76,2.25-3.7,7.61-7.48,15.18-11.34,22.72-1.14,2.23-.89,2.99,1.8,2.94,7.22-.13,14.45-.04,21.68-.04ZM266.36,255.28c7.1,0,14.21-.08,21.31.04,2.78.05,3.96-.17,2.29-3.33-3.85-7.26-7.43-14.65-11.02-22.04-.86-1.78-1.87-2.56-3.97-2.55-12.21.1-24.43.13-36.64,0-2.82-.03-3.07,1.04-2.48,3.29,1.87,7.22,3.77,14.44,5.43,21.72.52,2.28,1.48,2.98,3.77,2.93,7.1-.14,14.21-.05,21.31-.05Z"/>
  <path class="cls-3" d="M60.66,50.3c-.75,2.01-.81,4.11-.81,6.23.02,53.35.01,106.7.03,160.04,0,2.01-.17,3.87-1.12,5.76-15.13,30.14-30.19,60.3-45.28,90.46-.27.54-.59,1.06-.99,1.78-.83-.96-.49-1.96-.49-2.84-.02-98.84-.02-197.69,0-296.53,0-1.11.14-2.23.21-3.34,3.93.98,6.34,4.2,9.3,6.51,12.71,9.93,25.25,20.09,37.83,30.19.55.44.89,1.15,1.34,1.73Z"/>
  <path class="cls-3" d="M335,11.87c.07,1.11.21,2.23.21,3.34,0,98.83,0,197.67,0,296.5v2.77c-1.36-.59-1.53-1.78-1.99-2.68-14.82-29.6-29.61-59.22-44.45-88.81-1.04-2.07-1.48-4.12-1.48-6.42.04-53.22.03-106.44.04-159.65,0-2.24.03-4.47-.81-6.61,3.7-4.41,8.62-7.4,13-11,10.64-8.74,21.51-17.22,32.27-25.82.97-.77,1.78-1.78,3.21-1.62Z"/>
  <path class="cls-2" d="M132.75,335.2c-10.46,0-20.91-.09-31.37.06-2.98.04-3.95-.58-3.09-3.71,1.99-7.18,3.81-14.41,5.48-21.67.47-2.03,1.35-2.55,3.28-2.54,19.29.06,38.59.06,57.88,0,2.17,0,2.74.75,2.71,2.81-.1,7.34-.14,14.69.02,22.03.06,2.52-.8,3.1-3.18,3.08-10.58-.11-21.16-.05-31.74-.05Z"/>
  <path class="cls-2" d="M214.79,335.2c-10.7,0-21.41-.07-32.11.05-2.42.03-3.2-.63-3.15-3.11.16-7.34.12-14.69.02-22.03-.03-2.09.6-2.79,2.74-2.78,19.29.07,38.58.06,57.88,0,1.96,0,2.79.58,3.26,2.57,1.72,7.38,3.59,14.72,5.58,22.03.77,2.83-.24,3.34-2.84,3.31-10.45-.12-20.91-.05-31.36-.05Z"/>
  <path class="cls-2" d="M15.71,335.2c4.57-9.16,8.86-17.7,13.08-26.28.68-1.39,1.71-1.56,3.03-1.56,19.18.02,38.37.03,57.55-.01,1.91,0,2.66.28,2.07,2.49-2.05,7.69-3.94,15.42-5.8,23.15-.38,1.57-.99,2.25-2.74,2.24-22.17-.06-44.34-.04-67.19-.04Z"/>
  <path class="cls-2" d="M331.45,335.2c-22.83,0-44.87-.02-66.91.03-1.79,0-2.65-.52-3.08-2.31-1.84-7.74-3.74-15.47-5.76-23.16-.49-1.86-.15-2.42,1.77-2.41,19.31.04,38.62.03,57.93.02,1.13,0,2.16,0,2.8,1.29,4.29,8.68,8.64,17.32,13.24,26.53Z"/>
  <path class="cls-4" d="M137.39,295.4c-8.84,0-17.69-.08-26.53.05-2.74.04-3.43-.57-2.64-3.4,2.04-7.3,3.78-14.68,5.51-22.07.48-2.05,1.34-2.82,3.53-2.81,15.82.09,31.64.09,47.46,0,2.27-.01,3.02.64,2.98,2.95-.13,7.47-.13,14.95,0,22.42.04,2.36-.8,2.94-3.03,2.91-9.09-.1-18.19-.04-27.28-.04Z"/>
  <path class="cls-4" d="M209.39,295.4c-8.84,0-17.68-.06-26.52.04-2.24.02-3.38-.32-3.32-3,.18-7.47.15-14.94,0-22.41-.05-2.43.92-2.86,3.07-2.86,15.69.07,31.38.08,47.07,0,2.23-.01,3.31.56,3.84,2.89,1.68,7.39,3.46,14.77,5.52,22.06.86,3.03-.25,3.35-2.77,3.32-8.96-.09-17.93-.03-26.9-.03Z"/>
  <path class="cls-4" d="M65.37,295.44c-8.84,0-17.68-.05-26.53.03-2.27.02-3.31-.17-1.97-2.77,4-7.74,7.86-15.54,11.69-23.37.77-1.57,1.73-2.13,3.46-2.12,15.69.06,31.38.07,47.07,0,2.46-.01,2.97.7,2.34,3.07-1.99,7.44-3.86,14.92-5.61,22.42-.49,2.1-1.43,2.8-3.56,2.77-8.97-.1-17.93-.04-26.9-.04Z"/>
  <path class="cls-4" d="M281.32,295.4c-8.71,0-17.43-.08-26.14.05-2.3.03-3.28-.71-3.8-2.95-1.74-7.5-3.63-14.97-5.6-22.42-.56-2.13-.22-2.91,2.13-2.91,15.81.06,31.62.06,47.43,0,1.81,0,2.62.77,3.36,2.26,3.84,7.81,7.71,15.61,11.69,23.35,1.2,2.33.41,2.66-1.8,2.65-9.09-.07-18.18-.03-27.27-.03Z"/>
  <path class="cls-2" d="M142.49,255.28c-7.36,0-14.72-.08-22.07.05-2.4.04-2.97-.49-2.31-2.93,2.01-7.45,3.81-14.95,5.6-22.46.45-1.88,1.29-2.55,3.3-2.53,12.59.1,25.19.08,37.79.01,1.98-.01,2.9.37,2.86,2.64-.13,7.48-.14,14.97,0,22.45.05,2.47-.99,2.84-3.1,2.82-7.36-.09-14.71-.04-22.07-.04Z"/>
  <path class="cls-2" d="M204.69,255.28c-7.46,0-14.93-.06-22.39.04-2.11.03-2.79-.64-2.76-2.76.11-7.46.11-14.93,0-22.39-.03-2.1.59-2.77,2.72-2.76,12.69.09,25.38.07,38.06,0,1.77,0,2.65.49,3.08,2.29,1.83,7.73,3.7,15.45,5.77,23.12.61,2.29-.25,2.48-2.09,2.46-7.46-.05-14.93-.02-22.39-.02Z"/>
  <path class="cls-2" d="M80.5,255.28c-7.23,0-14.45-.09-21.68.04-2.69.05-2.94-.71-1.8-2.94,3.86-7.53,7.64-15.11,11.34-22.72.83-1.72,1.9-2.26,3.76-2.25,12.21.08,24.42.11,36.63-.02,2.65-.03,3.21.82,2.57,3.22-1.93,7.33-3.87,14.67-5.56,22.06-.51,2.26-1.58,2.66-3.6,2.64-7.22-.09-14.45-.04-21.68-.04Z"/>
  <path class="cls-2" d="M266.36,255.28c-7.1,0-14.21-.09-21.31.05-2.29.05-3.25-.65-3.77-2.93-1.67-7.27-3.56-14.49-5.43-21.72-.58-2.26-.33-3.33,2.48-3.29,12.21.14,24.43.11,36.64,0,2.09-.02,3.1.77,3.97,2.55,3.59,7.39,7.17,14.79,11.02,22.04,1.68,3.16.5,3.38-2.29,3.33-7.1-.13-14.21-.04-21.31-.04Z"/>
</svg>