<?xml version="1.0" encoding="UTF-8"?>
<svg id="Capa_1" data-name="Capa 1" xmlns="http://www.w3.org/2000/svg" viewBox="0 0 329.41 360.58">
  <defs>
    <style>
      .cls-1 {
        fill: #c19a6b;
      }

      .cls-1, .cls-2, .cls-3 {
        stroke-width: 0px;
      }

      .cls-2 {
        fill: #f0e021;
      }

      .cls-3 {
        fill: #7f390b;
      }
    </style>
  </defs>
  <g>
    <path class="cls-3" d="M166.92,75.1c-4.11,0-8.21.06-12.32-.03-1.68-.04-2.56.22-2.48,2.24.16,3.86.15,7.74,0,11.61-.07,1.93.65,2.33,2.43,2.31,7.98-.09,15.95-.06,23.93-.03,5.18.02,6.65,2.46,4.58,7.24-6.68,15.44-23.2,18.69-36.13,15.81-9.66-2.15-16.97-7.7-21.39-16.68-.93-1.88-2.01-2.44-4.03-2.44-19.59.07-39.18.09-58.77-.02-2.38-.01-3.42.84-4.47,2.86-11.66,22.56-42.37,20.74-52.95,7.52-2-2.49-3.66-5.17-4.83-8.11-1.42-3.56.23-6.12,4.07-6.17,6.92-.1,13.84-.1,20.76.02,2.03.03,2.62-.58,2.54-2.57-.15-3.75-.14-7.51,0-11.26.07-1.87-.55-2.37-2.38-2.35-6.69.1-13.37.02-20.06.05-1.96.01-3.86-.14-4.91-2.05-1.1-2-.25-3.75.9-5.53,13.54-21.09,42.42-22.12,55.36-1.52,2.75,4.38,5.43,5.18,9.9,5.13,18.18-.19,36.37-.09,54.55-.06,1.83,0,3.17-.12,4.21-2.13,10.95-21.1,37.95-24.01,53.76-5.85,1.38,1.58,2.67,3.28,3.77,5.07,2.31,3.75.65,6.79-3.74,6.9-4.1.1-8.21.02-12.32.02ZM11.16,99.33c1.52,1.63,2.59,2.89,4.09,3.83,10.71,6.72,30.77,5.08,36.88-11.74,1.14-3.14,2.95-4.67,6.47-4.65,22.29.1,44.58.09,66.87,0,3.3-.01,5.14,1.3,6.3,4.35,3.82,10.04,11.33,15.22,21.95,15.6,7.12.26,13.9-.97,19.09-7.39-7.88,0-15.34.01-22.8,0-4.96,0-6.27-1.27-6.3-6.17-.04-6.57-.03-13.14,0-19.71.02-5.22,1.25-6.46,6.34-6.47,6.86-.02,13.71,0,20.93,0-12.52-12.59-32.81-8.49-38.91,7.54-1.44,3.78-3.69,5.07-7.65,5.05-21.35-.14-42.7-.07-64.05-.07q-6.17,0-8.55-5.62c-6.58-15.55-27-19.32-38.56-7.12.07.07.14.21.2.21,5.75,0,11.5-.03,17.25,0,4.04.03,5.52,1.44,5.55,5.47.06,7.04.05,14.08,0,21.12-.03,4.42-1.43,5.75-5.98,5.76-6.18.02-12.36,0-19.14,0Z"/>
    <path class="cls-2" d="M11.16,99.33c6.78,0,12.96.02,19.14,0,4.54-.02,5.95-1.34,5.98-5.76.05-7.04.06-14.08,0-21.12-.04-4.03-1.51-5.44-5.55-5.47-5.75-.04-11.5,0-17.25,0-.07,0-.14-.14-.2-.21,11.56-12.2,31.98-8.43,38.56,7.12q2.38,5.61,8.55,5.62c21.35,0,42.7-.07,64.05.07,3.95.03,6.21-1.26,7.65-5.05,6.1-16.03,26.4-20.14,38.91-7.54-7.22,0-14.08-.01-20.93,0-5.1.01-6.33,1.26-6.34,6.47-.02,6.57-.03,13.14,0,19.71.03,4.9,1.34,6.16,6.3,6.17,7.46.01,14.91,0,22.8,0-5.19,6.42-11.97,7.65-19.09,7.39-10.62-.38-18.13-5.56-21.95-15.6-1.16-3.05-3-4.36-6.3-4.35-22.29.08-44.58.09-66.87,0-3.52-.02-5.33,1.51-6.47,4.65-6.11,16.82-26.17,18.46-36.88,11.74-1.49-.94-2.56-2.2-4.09-3.83Z"/>
  </g>
  <g>
    <path class="cls-3" d="M326.54,0c2.26,1.27,2.9,3.21,2.88,5.76-.1,13.49-.04,26.99-.05,40.49,0,4.59-1.25,5.84-5.82,5.85-7.86.02-15.73.1-23.58-.05-2.22-.04-2.68.62-2.68,2.74.06,53.28.06,106.55.01,159.83,0,1.91.56,3.3,1.87,4.67,6.34,6.6,12.59,13.29,18.86,19.96,1.75,1.86,4.1,3.63,2.85,6.62-1.24,2.99-4.12,2.59-6.68,2.6-5.75.01-11.51.18-17.25-.07-2.88-.12-3.67.58-3.66,3.57.12,33.8.08,67.59.08,101.39,0,6.44-.79,7.22-7.31,7.22-72.75,0-145.51,0-218.26,0-6.05,0-6.8-.76-6.8-6.93,0-33.91-.03-67.83.06-101.74,0-2.65-.51-3.62-3.39-3.51-6.21.25-12.44.07-18.65.08-2.29,0-4.56-.14-5.65-2.6-1.14-2.56.61-4.19,2.14-5.82,20.35-21.62,40.5-43.42,61.23-64.67,3.62-3.71,4.5-6.98,4.4-11.57-.21-9.97-.08-19.95-.06-29.92.01-4.43,1.25-5.7,5.58-5.7,46.94-.01,93.87-.01,140.81,0,4.54,0,5.8,1.29,5.81,5.89.02,11.62.03,23.24-.02,34.85,0,1.92.31,3.06,2.21,4.38,3.02,2.1,5.33,5.23,7.93,7.92.46.47.88.98,1.86,2.07v-3.91c0-41.31-.03-82.62.06-123.92,0-2.72-.63-3.45-3.4-3.43-19.48.13-38.96.07-58.44.07-5.2,0-6.38-1.18-6.4-6.42-.01-4.93.17-9.87-.06-14.78-.17-3.77,1.25-6.03,4.68-7.7,14.61-7.14,29.12-14.48,43.65-21.78.8-.4,1.81-.5,2.3-1.42h78.87ZM225.24,352.82c18.77,0,37.55-.07,56.32.07,3.12.02,4.16-.65,4.14-4.01-.14-31.33-.08-62.66-.08-93.99q0-6.65-6.69-6.65c-24.76,0-49.51.04-74.27-.06-2.69-.01-3.81.62-3.54,3.48.24,2.56.15,5.16.02,7.74-.16,2.92-1.36,4.78-4.76,4.76-12.79-.09-25.58-.06-38.37-.01-3.22.01-4.77-1.4-4.7-4.64.05-2.58-.16-5.18.06-7.74.23-2.71-.62-3.6-3.46-3.59-25.93.11-51.86.1-77.79,0-2.59,0-3.38.64-3.37,3.32.09,32.74.09,65.47,0,98.21,0,2.45.63,3.18,3.12,3.15,11.03-.13,22.06-.21,33.08.03,3.46.08,4.22-.9,4.2-4.25-.16-21.59-.08-43.18-.08-64.77,0-6.34.79-7.15,6.93-7.15,14.08,0,28.16,0,42.24,0,6.05,0,6.78.73,6.79,6.88,0,21.24-.02,42.48.02,63.71.01,6.45-.79,5.46,5.29,5.47,18.3.05,36.61.02,54.91.02ZM46.58,240.41c1.23.67,2.53.32,3.76.32,26.75.02,53.5.02,80.26.02,6.34,0,12.68-.19,19,.08,3.25.14,4.1-.98,3.8-3.99-.24-2.44-.08-4.92-.04-7.39.05-3.55,1.26-4.77,4.88-4.77,12.67-.02,25.34.05,38.02-.05,3.37-.02,4.67,1.74,4.82,4.69.14,2.57.22,5.18-.01,7.74-.26,2.85.6,3.76,3.61,3.75,33.2-.11,66.41-.06,99.62-.1,1.09,0,2.34.5,3.39-.69-.33-.46-.62-.97-1-1.38-17.84-18.98-35.71-37.93-53.5-56.95-1.33-1.42-2.75-1.48-4.4-1.48-47.75.01-95.51.02-143.26-.04-2.22,0-3.65.72-5.13,2.3-17.25,18.4-34.58,36.74-51.86,55.11-.75.8-1.91,1.38-1.94,2.81ZM263.35,43.8c18.19,0,36.38-.06,54.57.06,2.66.02,3.37-.71,3.31-3.34-.18-7.86-.06-15.73-.06-23.59,0-9.08,0-8.99-9.12-8.77-2.15.05-2.54.85-2.44,2.7.13,2.34.04,4.69.02,7.04-.01.93.07,2.05-1.19,2.21-2.21.29-4.63.74-6.59-.15-1.88-.86-.62-3.16-.84-4.81-.17-1.27-.17-2.6,0-3.86.33-2.44-.54-3.15-3.04-3.13-15.02.12-30.04.09-45.06.03-1.97,0-3.66.55-5.35,1.41-11.06,5.56-21.88,11.67-33.27,16.43-7.19,3.01-10.01,6.99-8.86,14.58.38,2.53.76,3.26,3.36,3.25,18.19-.12,36.38-.06,54.57-.06ZM116.99,318.27c0,10.44.05,20.88-.04,31.32-.02,2.18.38,3.09,2.86,3.06,11.49-.14,22.99-.12,34.49-.01,2.14.02,2.85-.56,2.85-2.72-.06-20.88-.08-41.76.02-62.65.01-2.4-.96-2.58-2.9-2.57-11.5.08-22.99.11-34.49-.02-2.42-.03-2.85.78-2.83,2.97.11,10.21.05,20.41.05,30.62ZM177.6,152.2c-14.32,0-28.63-.04-42.95.03-3.12.02-7.28-1.39-9.06.65-1.53,1.75-.49,5.8-.49,8.84,0,3.39-1.19,7.94.52,9.88,1.97,2.22,6.62.69,10.09.69,30.04.06,60.08,0,90.12.09,2.73,0,3.67-.61,3.51-3.46-.25-4.56-.22-9.16,0-13.72.12-2.56-.76-3.07-3.16-3.06-16.19.1-32.39.05-48.58.05ZM288.89,208.57c.84-1.58.5-2.87.5-4.1.03-20.42.02-40.84.02-61.26,0-21.36-.04-42.72.05-64.08,0-2.36-.47-3.36-3.05-3.19-3.51.22-7.05.2-10.56,0-2.35-.13-2.93.69-2.92,2.96.07,36.85.04,73.7.05,110.55,0,1.03-.2,2.1.65,2.99,5.05,5.31,10.07,10.65,15.25,16.12ZM177.04,135.99c-21.71,0-43.41,0-65.12,0-1.41,0-3.04-.58-3.02,2.04.11,10.79.08,21.59,0,32.39-.01,1.81.72,2.22,2.29,2.07.93-.09,1.89-.14,2.81,0,2.65.41,3.4-.63,3.33-3.28-.19-6.68-.1-13.38-.05-20.06.03-3.52,1.34-4.79,4.91-4.8,36.61-.02,73.22-.02,109.83,0,3.69,0,5.06,1.38,5.08,5.08.04,5.98.01,11.97.01,17.95,0,5.14,0,5.02,5.22,5.14,2.39.06,3.23-.51,3.19-3.07-.15-10.09-.17-20.18,0-30.27.05-2.74-.82-3.27-3.38-3.26-21.71.1-43.41.06-65.12.06ZM177.27,232.38c-4.68,0-9.35.06-14.03-.03-1.57-.03-2.44.26-2.21,2.07.13,1.04.15,2.12,0,3.15-.37,2.51.69,3.11,3.1,3.07,7.95-.15,15.9-.06,23.84-.06,5.46,0,5.35,0,5.46-5.3.04-2.2-.43-3.06-2.83-2.95-4.43.2-8.88.06-13.32.06ZM289.32,59.83c-.26-2.17,1.18-5.78-.54-7.21-1.62-1.34-5.1-.51-7.76-.52-7.93-.03-7.93-.01-7.93,7.9s0,8.27,8.35,8.27q7.89,0,7.89-8.45ZM177.25,256.42c4.46,0,8.92-.09,13.37.04,2.04.06,3.16-.34,2.78-2.65-.13-.8-.12-1.65,0-2.46.37-2.48-.65-3.17-3.1-3.13-7.86.14-15.71.05-23.57.05-5.81,0-5.71,0-5.72,5.66,0,1.98.53,2.59,2.53,2.52,4.57-.15,9.15-.05,13.72-.05Z"/>
    <path class="cls-1" d="M225.24,352.82c-18.3,0-36.61.03-54.91-.02-6.08-.02-5.28.98-5.29-5.47-.04-21.24,0-42.48-.02-63.71,0-6.16-.73-6.88-6.79-6.88-14.08,0-28.16,0-42.24,0-6.14,0-6.93.81-6.93,7.15,0,21.59-.08,43.18.08,64.77.02,3.35-.74,4.33-4.2,4.25-11.02-.25-22.06-.17-33.08-.03-2.49.03-3.13-.71-3.12-3.15.08-32.74.08-65.47,0-98.21,0-2.69.78-3.33,3.37-3.32,25.93.09,51.86.1,77.79,0,2.85-.01,3.69.87,3.46,3.59-.21,2.56,0,5.16-.06,7.74-.06,3.24,1.48,4.65,4.7,4.64,12.79-.05,25.58-.07,38.37.01,3.4.02,4.6-1.84,4.76-4.76.14-2.57.23-5.18-.02-7.74-.27-2.85.85-3.49,3.54-3.48,24.76.09,49.51.06,74.27.06q6.69,0,6.69,6.65c0,31.33-.06,62.66.08,93.99.01,3.36-1.02,4.03-4.14,4.01-18.77-.14-37.54-.07-56.32-.07ZM220.98,316.55q0,8.1,7.9,8.1,8.39,0,8.39-8.29,0-7.9-8.06-7.9-8.22,0-8.22,8.09ZM213.18,316.58q0-8.12-8.14-8.12t-8.05,8.22q0,7.97,7.99,7.97,8.2,0,8.2-8.07ZM228.79,300.67q8.48,0,8.48-8.22,0-8.01-7.96-8.01-8.32,0-8.32,8.36,0,7.87,7.8,7.87ZM213.18,292.93q0-8.48-8.14-8.48-8.05,0-8.05,7.89,0,8.33,8.35,8.33,7.84,0,7.84-7.74Z"/>
    <path class="cls-1" d="M46.58,240.41c.02-1.42,1.19-2.01,1.94-2.81,17.28-18.38,34.61-36.71,51.86-55.11,1.48-1.58,2.91-2.3,5.13-2.3,47.75.07,95.51.05,143.26.04,1.65,0,3.08.06,4.4,1.48,17.79,19.02,35.66,37.97,53.5,56.95.38.41.67.91,1,1.38-1.04,1.19-2.3.69-3.39.69-33.21.03-66.41-.02-99.62.1-3.01.01-3.87-.9-3.61-3.75.23-2.56.15-5.16.01-7.74-.16-2.95-1.46-4.72-4.82-4.69-12.67.09-25.34.02-38.02.05-3.62,0-4.83,1.22-4.88,4.77-.03,2.46-.2,4.95.04,7.39.3,3.01-.55,4.13-3.8,3.99-6.32-.27-12.67-.08-19-.08-26.75,0-53.5,0-80.26-.02-1.23,0-2.53.34-3.76-.32Z"/>
    <path class="cls-2" d="M263.35,43.8c-18.19,0-36.38-.06-54.57.06-2.6.02-2.98-.71-3.36-3.25-1.14-7.59,1.68-11.58,8.86-14.58,11.39-4.76,22.22-10.88,33.27-16.43,1.69-.85,3.38-1.41,5.35-1.41,15.02.06,30.04.09,45.06-.03,2.5-.02,3.36.69,3.04,3.13-.17,1.27-.16,2.6,0,3.86.22,1.65-1.04,3.95.84,4.81,1.97.9,4.39.44,6.59.15,1.26-.16,1.18-1.29,1.19-2.21.03-2.35.11-4.7-.02-7.04-.1-1.85.29-2.65,2.44-2.7,9.12-.22,9.12-.31,9.12,8.77,0,7.86-.11,15.73.06,23.59.06,2.63-.65,3.36-3.31,3.34-18.19-.12-36.38-.06-54.57-.06ZM305.5,36.03c3.89,1.37,4.03-.89,4.28-4.13.33-4.17-1.82-3.94-4.76-4.14-3.5-.24-4.12.99-4.19,4.26-.08,3.63.94,4.97,4.67,4.02Z"/>
    <path class="cls-2" d="M116.99,318.27c0-10.21.06-20.41-.05-30.62-.02-2.2.41-3,2.83-2.97,11.49.14,22.99.1,34.49.02,1.95-.01,2.91.17,2.9,2.57-.1,20.88-.08,41.76-.02,62.65,0,2.16-.71,2.74-2.85,2.72-11.5-.1-22.99-.13-34.49.01-2.48.03-2.88-.87-2.86-3.06.1-10.44.04-20.88.04-31.32ZM124.69,324.73c3.23.66,5.16.16,4.87-3.86-.34-4.76-.08-4.58-4.39-4.84-3.33-.2-4.92.47-4.57,4.3.27,2.91-.13,5.66,4.09,4.4Z"/>
    <path class="cls-1" d="M288.89,208.57c-5.17-5.48-10.2-10.81-15.25-16.12-.85-.89-.65-1.96-.65-2.99,0-36.85.01-73.7-.05-110.55,0-2.27.58-3.09,2.92-2.96,3.51.19,7.05.22,10.56,0,2.58-.16,3.06.83,3.05,3.19-.08,21.36-.05,42.72-.05,64.08,0,20.42,0,40.84-.02,61.26,0,1.23.33,2.52-.5,4.1Z"/>
    <path class="cls-2" d="M177.04,135.99c21.71,0,43.41.04,65.12-.06,2.56-.01,3.43.52,3.38,3.26-.17,10.09-.16,20.18,0,30.27.04,2.56-.81,3.13-3.19,3.07-5.21-.12-5.22,0-5.22-5.14,0-5.98.03-11.97-.01-17.95-.02-3.7-1.39-5.08-5.08-5.08-36.61-.02-73.22-.02-109.83,0-3.57,0-4.89,1.28-4.91,4.8-.05,6.69-.15,13.38.05,20.06.08,2.65-.67,3.69-3.33,3.28-.92-.14-1.88-.1-2.81,0-1.57.15-2.3-.26-2.29-2.07.08-10.8.1-21.59,0-32.39-.03-2.61,1.6-2.04,3.02-2.04,21.71-.01,43.41,0,65.12,0Z"/>
    <path class="cls-2" d="M177.27,232.38c4.44,0,8.89.14,13.32-.06,2.4-.11,2.88.75,2.83,2.95-.1,5.3,0,5.3-5.46,5.3-7.95,0-15.9-.09-23.84.06-2.41.04-3.47-.55-3.1-3.07.15-1.03.13-2.11,0-3.15-.23-1.81.64-2.1,2.21-2.07,4.67.09,9.35.03,14.03.03Z"/>
    <path class="cls-2" d="M289.32,59.83q0,8.45-7.89,8.45-8.35,0-8.35-8.27c0-7.92,0-7.94,7.93-7.9,2.66.01,6.14-.82,7.76.52,1.73,1.43.29,5.04.54,7.21Z"/>
    <path class="cls-2" d="M177.25,256.42c-4.57,0-9.15-.1-13.72.05-2,.06-2.53-.54-2.53-2.52,0-5.66-.09-5.66,5.72-5.66,7.86,0,15.72.09,23.57-.05,2.45-.05,3.47.65,3.1,3.13-.12.8-.13,1.66,0,2.46.38,2.31-.74,2.71-2.78,2.65-4.45-.14-8.91-.04-13.37-.04Z"/>
    <path class="cls-2" d="M220.98,316.55q0-8.09,8.22-8.09,8.06,0,8.06,7.9,0,8.29-8.39,8.29-7.9,0-7.9-8.1Z"/>
    <path class="cls-2" d="M213.18,316.58q0,8.07-8.2,8.07-7.99,0-7.99-7.97,0-8.22,8.05-8.22t8.14,8.12Z"/>
    <path class="cls-2" d="M228.79,300.67q-7.8,0-7.8-7.87,0-8.36,8.32-8.36,7.96,0,7.96,8.01,0,8.22-8.48,8.22Z"/>
    <path class="cls-2" d="M213.18,292.93q0,7.74-7.84,7.74-8.35,0-8.35-8.33,0-7.89,8.05-7.89t8.14,8.48Z"/>
    <path class="cls-3" d="M305.5,36.03c-3.72.95-4.74-.39-4.67-4.02.07-3.26.69-4.5,4.19-4.26,2.94.2,5.09-.02,4.76,4.14-.26,3.24-.39,5.5-4.28,4.13Z"/>
    <path class="cls-3" d="M124.69,324.73c-4.22,1.26-3.82-1.49-4.09-4.4-.35-3.83,1.23-4.51,4.57-4.3,4.31.26,4.05.09,4.39,4.84.29,4.02-1.64,4.52-4.87,3.86Z"/>
  </g>
</svg>