<?xml version="1.0" encoding="UTF-8"?>
<svg id="Capa_1" data-name="Capa 1" xmlns="http://www.w3.org/2000/svg" viewBox="0 0 329.71 323.54">
  <defs>
    <style>
      .cls-1 {
        fill: #f0e021;
      }

      .cls-1, .cls-2, .cls-3 {
        stroke-width: 0px;
      }

      .cls-2 {
        fill: #c19a6b;
      }

      .cls-3 {
        fill: #7f390b;
      }
    </style>
  </defs>
  <path class="cls-3" d="M306.95,316.24c6.3,0,12.12.01,17.93,0,1.74,0,3.33.31,4.28,1.91,1.56,2.63-.34,5.28-3.86,5.31-9.88.07-19.76.1-29.64.1-35.24-.02-70.49-.05-105.73-.08-.88,0-1.76-.01-2.64,0-2.47.05-4.13-1.05-4.13-3.6,0-2.59,1.83-3.59,4.19-3.61,4.94-.04,9.88-.02,14.82-.02.66,0,1.32-.03,1.98,0,1.04.05,1.7-.14,1.34-1.44-1.55-5.53.28-10.89.97-16.27,1.94-15.23,4.11-30.43,6.23-45.64.23-1.63-.15-2.89-1.19-4.21-6.82-8.64-10.81-18.48-11.87-29.45-.14-1.47-.52-1.93-2.02-2.23-6-1.2-9.54-4.61-10.23-10.05-.7-5.47,1.55-9.66,6.51-12.14,1.76-.88,1.44-2.24,1.44-3.61.01-22.07,0-44.14.01-66.21,0-4.61-.12-9.23.18-13.83.82-12.49,11.19-22.8,23.75-22.93,24.7-.25,49.41-.26,74.11,0,13.56.14,24.05,11.44,24.1,25.42.09,25.59.05,51.17,0,76.76,0,2.31.29,3.84,2.68,5.18,4.45,2.5,5.98,6.82,5.28,11.83-.63,4.53-4.21,8.44-9.03,9.28-2.42.43-3.12,1.48-3.35,3.7-1.1,10.52-5.14,19.87-11.6,28.19-1.08,1.39-1.49,2.62-1.23,4.46,2.5,17.7,4.87,35.41,7.25,53.13.44,3.26.9,6.53-.52,10.08ZM256.24,193.56c10.97,0,21.94-.05,32.91.05,1.98.02,2.81-.58,3.4-2.48,4.2-13.51,4.75-27.19,1.69-40.93-2.8-12.56-8.17-23.84-18.37-32.21-6.71-5.5-14.38-8.33-23.18-7.04-11.92,1.75-20.09,9.01-25.92,18.89-11.53,19.56-12.72,40.33-6.28,61.83.58,1.94,1.69,1.9,3.16,1.89,10.86-.02,21.72-.01,32.59-.01ZM213.41,193.35c-2.83-9.33-4.26-18.73-3.89-28.34.67-16.98,5.12-32.74,16.33-45.9,10.33-12.13,23.22-18.4,39.42-14.39,11.82,2.92,20.26,10.75,26.49,20.85,11.67,18.9,13.86,39.38,9.52,60.85-.47,2.32-2.53,5.31-1.17,6.71,1.19,1.23,4.57.23,6.96.47,2.51.25,3.28-.5,3.27-3.16-.11-25.26-.06-50.52-.07-75.78,0-11.88-7.44-19.31-19.3-19.32-22.73,0-45.46,0-68.19,0-13.23,0-20.27,7.05-20.28,20.34,0,22.62-.03,45.25.03,67.87,0,3.26-1.47,7.87.61,9.43,2.16,1.63,6.5.36,10.28.36ZM256.38,217.15c-15.49,0-30.97.09-46.45-.08-3-.03-3.4.92-3.01,3.53,3.7,24.69,24.9,42.92,49.92,42.81,24.6-.11,45.55-18.58,49.06-42.99.44-3.08-.45-3.34-3.06-3.33-15.48.11-30.97.05-46.45.05ZM219.28,257.33c-1.79,13.33-3.49,26.37-5.31,39.4-.34,2.44,1.12,2.09,2.53,2.09,26.68,0,53.35-.03,80.03.05,2.37,0,2.66-.72,2.34-2.83-1.14-7.59-2.09-15.21-3.13-22.81-.72-5.25-1.47-10.5-2.22-15.82-24.84,17.76-49.32,17.78-74.23-.07ZM256.4,200.77c-11.2,0-22.4,0-33.61,0-7.91,0-15.82-.03-23.72.06-2.77.03-4.76,2.04-4.63,4.53.14,2.68,1.71,4.18,4.34,4.55.65.09,1.32.05,1.97.05,35.36,0,70.73,0,106.09,0,2.31,0,4.62.11,6.91-.05,2.76-.2,4.51-1.64,4.56-4.59.04-2.66-1.67-4.33-4.59-4.51-1.31-.08-2.64-.04-3.95-.04-17.79,0-35.58,0-53.38,0ZM256.44,316.15c12.96,0,25.91.04,38.87-.02,3.55-.02,5.55-2.22,5.41-5.57q-.19-4.52-4.92-4.52c-1.43,0-2.86,0-4.28,0-25.26,0-50.51-.01-75.77.04-1.04,0-2.37-.74-3.13.89-2.17,4.66.43,9.14,5.61,9.17,12.74.09,25.48.03,38.21.02Z"/>
  <path class="cls-3" d="M56.6,277.89c0-13.4-.07-26.8.07-40.2.03-2.38-.76-3.43-2.88-4.21-2.56-.94-5.04-2.14-7.43-3.45-4.73-2.59-7.13-7.48-5.51-12.47.89-2.75-.34-3.29-2.18-4.29-15.6-8.5-27.68-20.3-34.47-37.02-2.54-6.26-3.84-12.8-4.16-19.53-.23-4.76.89-5.9,5.59-5.91,11.42-.01,22.84-.07,34.26.05,2.24.02,3.26-.45,2.88-2.82-.14-.86-.01-1.75-.02-2.63-.03-1.86.58-4.14-.27-5.47-.96-1.5-3.41-.4-5.2-.6-2.21-.25-3.86-1.13-3.86-3.61,0-2.65,1.65-3.62,4.09-3.61,5.92,0,11.84,0,17.76,0,2.28,0,3.91.86,4.02,3.34.12,2.65-1.56,3.64-3.93,3.88-1.71.17-4.12-.82-4.97.43-.88,1.3-.39,3.57-.4,5.42-.03,5.63-.01,5.63,5.59,5.63,7.47,0,14.94-.05,22.4.04,1.8.02,2.43-.38,2.42-2.31-.09-14.17,0-28.34-.08-42.5-.03-4.84-3.56-8.48-8.11-8.7-4.71-.23-8.59,3.14-8.97,8.14-.24,3.23-1.81,4.44-4.87,4.36-3.29-.08-6.59,0-9.88-.03-3.84-.04-5.07-1.42-4.79-5.29,1.09-15.34,13.5-27.04,28.39-26.76,15.52.29,27.58,12.43,27.82,28.37.21,13.84.12,27.68-.01,41.51-.02,2.57.61,3.37,3.21,3.22,4.05-.23,8.13-.21,12.18,0,2.28.11,2.88-.72,2.61-2.77-.11-.86-.01-1.75-.02-2.63-.02-1.86.6-4.12-.24-5.49-.96-1.57-3.4-.43-5.18-.64-2.37-.28-4.03-1.26-3.91-3.9.12-2.49,1.75-3.33,4.03-3.33,5.92,0,11.84,0,17.76,0,2.44,0,4.09.99,4.08,3.63,0,2.48-1.67,3.38-3.88,3.58-1.72.16-4.24-.79-4.98.39-.91,1.44-.43,3.78-.44,5.74-.03,5.36-.01,5.36,5.2,5.36,10.54,0,21.09,0,31.63,0,5.06,0,6.18,1.18,5.83,6.32-1.52,22.38-12.91,38.88-30.82,51.42-2.86,2-5.97,3.68-9.03,5.37-1.25.69-1.6,1.17-1.15,2.74,1.8,6.26-.66,11.21-6.61,13.97-.2.09-.38.26-.59.3-7.57,1.28-8.63,6.05-8.5,13.02.46,24.59.18,49.2.18,73.8,0,4.87-.83,5.69-5.76,5.69-14.61,0-29.21,0-43.82,0-4.04,0-5.05-1.01-5.05-5.04-.01-13.51,0-27.02,0-40.53ZM83.87,158.04c-24.48,0-48.96.04-73.44-.05-2.48,0-3.17.47-2.79,3.07.92,6.37,2.76,12.41,5.81,18.04,8.32,15.36,21.12,25.68,37.26,31.66,29.87,11.06,58.43,8.37,84.74-10.11,13.33-9.37,21.87-22.25,24.6-38.64.5-2.98.1-4.09-3.41-4.07-24.26.18-48.52.09-72.77.09ZM104.01,236.6c-13.43,3.34-26.71,3.93-40.18.37,0,26.1.03,51.76-.05,77.43,0,2.14,1.08,1.94,2.44,1.94,11.52-.01,23.04-.12,34.55.07,2.89.05,3.31-.89,3.3-3.48-.11-18.21-.06-36.42-.06-54.64v-21.69ZM92.73,127.22h-.01c0-7.13.13-14.27-.03-21.4-.25-10.92-7.91-19.24-18.79-20.7-9.43-1.26-19.07,5.08-22.04,14.56-.3.95-1.51,2.58.28,2.82,1.44.19,3.54,1.41,4.65-1.35,3.28-8.16,10.25-12.22,17.78-10.69,8.19,1.67,12.99,7.89,13,16.89.01,13.39.01,26.78,0,40.17,0,1.86-.42,3.53,2.66,3.44,2.8-.08,2.53-1.5,2.52-3.31-.04-6.81-.02-13.61-.02-20.42ZM84.75,232.18c11.12-.49,22.26-3.27,32.26-8.03.89-.43,1.84-.77,2.42-1.63.86-1.25,1.26-2.67.37-4-.93-1.38-2.03-.06-2.88.23-22.14,7.62-44.24,7.53-66.34-.13-.76-.26-1.65-1.2-2.39-.31-.71.85-.73,1.99-.32,3.12.45,1.24,1.36,1.91,2.46,2.49,10.79,5.62,22.24,8.42,34.42,8.25Z"/>
  <path class="cls-3" d="M159.47,0C176.48,0,193.5,0,210.52,0c4.91,0,5.76.84,5.76,5.73,0,21.74,0,43.48,0,65.22,0,4.9-.79,5.66-5.81,5.66-34.03,0-68.06,0-102.1,0-5.17,0-5.92-.75-5.92-5.89,0-21.63,0-43.26,0-64.89,0-5.09.77-5.83,5.97-5.83,17.02,0,34.03,0,51.05,0ZM159.42,7.26c-15.58,0-31.17.06-46.75-.06-2.5-.02-3.11.7-3.1,3.14.1,18.66.12,37.32-.02,55.98-.02,2.83,1.04,3.15,3.42,3.15,30.95-.06,61.9-.08,92.85.02,2.67,0,3.23-.79,3.22-3.31-.1-18.55-.12-37.1.01-55.65.02-2.86-.91-3.36-3.54-3.33-15.36.13-30.73.06-46.09.06Z"/>
  <path class="cls-1" d="M256.24,193.56c-10.86,0-21.72,0-32.59.01-1.48,0-2.58.05-3.16-1.89-6.44-21.5-5.25-42.27,6.28-61.83,5.82-9.88,14-17.14,25.92-18.89,8.8-1.3,16.47,1.54,23.18,7.04,10.21,8.36,15.58,19.65,18.37,32.21,3.06,13.74,2.51,27.42-1.69,40.93-.59,1.9-1.43,2.5-3.4,2.48-10.97-.1-21.94-.05-32.91-.05Z"/>
  <path class="cls-2" d="M213.41,193.35c-3.78,0-8.11,1.26-10.28-.36-2.07-1.56-.6-6.17-.61-9.43-.06-22.62-.04-45.25-.03-67.87,0-13.29,7.04-20.34,20.28-20.34,22.73,0,45.46,0,68.19,0,11.86,0,19.29,7.43,19.3,19.32.02,25.26-.04,50.52.07,75.78.01,2.66-.75,3.41-3.27,3.16-2.39-.24-5.77.76-6.96-.47-1.35-1.4.7-4.39,1.17-6.71,4.34-21.48,2.16-41.96-9.52-60.85-6.24-10.1-14.67-17.93-26.49-20.85-16.2-4-29.08,2.26-39.42,14.39-11.21,13.16-15.67,28.92-16.33,45.9-.38,9.61,1.05,19.01,3.89,28.34Z"/>
  <path class="cls-2" d="M305.9,220.42c-3.52,24.42-24.46,42.89-49.06,43-25.02.11-46.23-18.12-49.92-42.81-.39-2.62.01-3.57,3.01-3.54,15.48.17,30.97.08,46.45.08s30.97.06,46.46-.05c2.61-.02,3.5.24,3.06,3.32Z"/>
  <path class="cls-2" d="M296.52,298.87c-26.68-.08-53.35-.05-80.03-.05-1.41,0-2.87.35-2.53-2.09,1.82-13.02,3.53-26.07,5.31-39.4,24.92,17.85,49.4,17.84,74.24.07.75,5.33,1.5,10.58,2.22,15.83,1.04,7.6,1.99,15.22,3.13,22.81.32,2.11.03,2.84-2.34,2.83Z"/>
  <path class="cls-1" d="M256.4,200.77c17.79,0,35.58,0,53.38,0,1.32,0,2.64-.04,3.95.04,2.92.17,4.63,1.84,4.59,4.51-.05,2.95-1.8,4.39-4.56,4.59-2.29.16-4.61.05-6.91.05-35.36,0-70.73,0-106.09,0-.66,0-1.33.04-1.97-.05-2.63-.37-4.2-1.87-4.34-4.55-.13-2.48,1.85-4.49,4.63-4.53,7.91-.09,15.81-.06,23.72-.06,11.2,0,22.4,0,33.61,0Z"/>
  <path class="cls-1" d="M256.44,316.15c-12.74,0-25.48.06-38.21-.03-5.18-.04-7.79-4.51-5.61-9.17.76-1.63,2.09-.88,3.13-.89,25.26-.05,50.51-.04,75.77-.04,1.43,0,2.86,0,4.28,0q4.74,0,4.92,4.52c.14,3.35-1.86,5.55-5.41,5.57-12.96.06-25.91.02-38.87.03Z"/>
  <path class="cls-2" d="M83.87,158.04c24.26,0,48.52.08,72.77-.09,3.51-.03,3.91,1.09,3.41,4.07-2.73,16.39-11.27,29.27-24.6,38.64-26.31,18.48-54.87,21.17-84.74,10.11-16.14-5.98-28.95-16.3-37.26-31.66-3.05-5.63-4.89-11.67-5.81-18.04-.38-2.6.31-3.08,2.79-3.07,24.48.09,48.96.05,73.44.05Z"/>
  <path class="cls-2" d="M104.01,236.6v21.69c0,18.21-.05,36.42.06,54.64.02,2.6-.41,3.53-3.3,3.48-11.52-.19-23.04-.08-34.55-.07-1.36,0-2.45.2-2.44-1.94.08-25.67.05-51.33.05-77.43,13.47,3.56,26.75,2.97,40.18-.37Z"/>
  <path class="cls-1" d="M92.73,127.22c0,6.81-.02,13.61.02,20.42.01,1.81.28,3.23-2.52,3.31-3.08.09-2.66-1.57-2.66-3.44.02-13.39.02-26.78,0-40.17,0-9-4.81-15.21-13-16.89-7.52-1.54-14.5,2.53-17.78,10.69-1.11,2.76-3.21,1.54-4.65,1.35-1.79-.24-.57-1.87-.28-2.82,2.97-9.48,12.61-15.82,22.04-14.56,10.88,1.46,18.54,9.79,18.79,20.7.16,7.13.03,14.27.03,21.4h.01Z"/>
  <path class="cls-1" d="M84.75,232.19c-12.17.16-23.63-2.64-34.42-8.26-1.1-.57-2.01-1.25-2.46-2.49-.41-1.13-.39-2.27.32-3.12.74-.89,1.63.05,2.39.31,22.1,7.66,44.2,7.75,66.34.13.85-.29,1.96-1.62,2.88-.23.89,1.33.48,2.74-.37,4-.58.85-1.52,1.2-2.42,1.63-10,4.76-21.14,7.54-32.26,8.03Z"/>
  <path class="cls-1" d="M159.42,7.26c15.37,0,30.73.06,46.09-.06,2.62-.02,3.56.48,3.54,3.33-.13,18.55-.12,37.1-.01,55.65.01,2.52-.55,3.32-3.22,3.31-30.95-.1-61.9-.09-92.85-.02-2.38,0-3.44-.32-3.42-3.15.14-18.66.12-37.32.02-55.98-.01-2.44.6-3.16,3.1-3.14,15.58.12,31.17.06,46.75.06ZM148.18,53.41c.72.04,1.75-.86,2.51-2.17,1.54-2.64,3.07-5.29,4.6-7.94,2.79-4.82,5.61-9.62,8.33-14.48,1.1-1.96.9-3.92-1.13-5.15-1.87-1.13-3.77-.65-4.85,1.18-4.61,7.8-9.18,15.64-13.57,23.56-1.34,2.42.53,5.02,4.11,4.99ZM167.4,53.42c.75-.11,1.58-.11,2.1-.76,2.32-2.91,4.25-6.09,5.49-9.57.55-1.55-.48-3.01-2.03-3.68-1.53-.66-3.24-.53-4.16.87-1.79,2.72-3.51,5.54-4.81,8.51-1.06,2.42.84,4.7,3.41,4.63Z"/>
  <path class="cls-3" d="M148.18,53.41c-3.58.03-5.45-2.57-4.11-4.99,4.39-7.93,8.96-15.76,13.57-23.56,1.08-1.83,2.99-2.32,4.85-1.18,2.03,1.23,2.23,3.19,1.13,5.15-2.72,4.86-5.55,9.66-8.33,14.48-1.53,2.65-3.07,5.29-4.6,7.94-.76,1.31-1.79,2.21-2.51,2.17Z"/>
  <path class="cls-3" d="M167.4,53.41c-2.57.08-4.46-2.2-3.41-4.62,1.3-2.97,3.02-5.79,4.81-8.51.92-1.4,2.64-1.54,4.16-.87,1.55.68,2.58,2.14,2.03,3.68-1.24,3.49-3.17,6.66-5.49,9.57-.52.65-1.35.65-2.1.76Z"/>
</svg>