<svg xmlns="http://www.w3.org/2000/svg" version="1.1" xmlns:xlink="http://www.w3.org/1999/xlink" width="1000" height="1000"><g clip-path="url(#SvgjsClipPath1490)"><rect width="1000" height="1000" fill="#ad6a4b"></rect><g transform="matrix(1.4254296652276615,0,0,1.4254296652276615,197.62360511525617,150)"><svg xmlns="http://www.w3.org/2000/svg" version="1.1" xmlns:xlink="http://www.w3.org/1999/xlink" width="424.26" height="491.08"><svg id="Capa_1" data-name="Capa 1" xmlns="http://www.w3.org/2000/svg" viewBox="0 0 424.26 491.08">
  <defs>
    <style>
      .cls-1, .cls-4 {
        fill: #f0e021;
      }

      .cls-1, .cls-4{
        stroke-width: 0px;
      }
    </style>
  <clipPath id="SvgjsClipPath1490"><rect width="1000" height="1000" x="0" y="0" rx="350" ry="350"></rect></clipPath></defs>
  <g>
    <polygon class="cls-1" points="388.91 143.42 424.26 123.01 212.13 .54 0 123.01 35.36 143.42 212.13 41.36 388.91 143.42 388.91 143.42"></polygon>
  </g>
  <g>
    <polygon class="cls-4" points="424.03 164.48 424.03 123.66 211.9 246.13 211.9 286.96 424.03 164.48 424.03 164.48"></polygon>
    <polygon class="cls-4" points="424.03 327.78 211.9 450.26 211.9 491.08 424.03 368.61 424.03 327.78 424.03 327.78"></polygon>
    <polygon class="cls-4" points="424.03 266.55 424.03 225.72 317.97 286.96 317.97 327.78 424.03 266.55 424.03 266.55"></polygon>
  </g>
  <polygon class="cls-4" points="213.1 40.82 213.1 0 .97 122.47 .97 163.3 213.1 40.82 213.1 40.82"></polygon>
  <g>
    <polygon class="cls-1" points="212.36 491.08 212.36 246.13 106.3 184.9 106.3 225.72 177.01 266.55 177.01 470.67 212.36 491.08 212.36 491.08"></polygon>
    <polygon class="cls-1" points="35.55 144.09 35.55 389.04 .19 368.63 .19 123.68 35.55 144.09 35.55 144.09"></polygon>
  </g>
</svg></svg></g></g></svg>