<?xml version="1.0" encoding="UTF-8"?>
<svg id="Capa_1" data-name="Capa 1" xmlns="http://www.w3.org/2000/svg" viewBox="0 0 29.7 32.72">
  <path d="M11.7,0c.65,0,1.3,0,1.95,0,.01.03.03.08.04.08,1.19.12,2.21.63,3.14,1.34.14.14.28.28.42.41.36.51.71,1.02.95,1.6.16.39,0,.98.44,1.14.4.14.9.02,1.36.02.51,0,1.02,0,1.53,0,.51,0,1.02,0,1.54,0,1.63.19,2.31.95,2.31,2.6,0,2.92-.02,5.83.01,8.75.01.95-.01,1.83-.85,2.46-.52.51-1.01,1.04-1.47,1.6-.51.48-.98,1-1.43,1.54-.03.04-.07.07-.1.11-.47.44-.91.92-1.32,1.42-.13.13-.26.25-.39.38-.47.45-.83,1-1.37,1.38-.14-.14-.27-.28-.41-.42-.31-.41-.65-.78-1.02-1.13-.1-.11-.2-.21-.29-.32-.46-.33-.66-.9-1.15-1.21-.14-.15-.29-.27-.49-.33-.14-.16-.33-.24-.53-.29-.81-.44-1.7-.5-2.41.05-1,.78-1.94,1.68-2.67,2.73-.73,1.05-.59,2.01.33,2.93,1.71,1.71,3.43,3.42,5.15,5.13.09.09.24.13.2.35H4.73c-.39,0-.77-.02-1.16-.02-.86,0-1.72.08-2.53-.33-.38-.28-.69-.62-.9-1.04-.1-.45-.14-.9-.13-1.36.01-.66,0-1.32-.01-1.98V7.79c.06-.54-.05-1.1.1-1.64.02-.06.04-.12.06-.19.46-.95,1.26-1.34,2.27-1.35,1.24-.01,2.49-.01,3.73-.02.18,0,.37,0,.55.02.17.01.25-.06.26-.22.02-.46.23-.87.34-1.3.16-.28.33-.55.49-.83.18-.2.35-.4.53-.61.34-.27.68-.53,1.02-.8.08-.02.16-.02.2-.12.68-.36,1.43-.49,2.15-.73ZM6.63,13.48c.13-.13.24-.26.24-.46,0-.07.01-.14.02-.2.05-.74-.14-1.03-.83-1.22-.07,0-.14-.01-.2-.02-.49-.06-.97-.06-1.46,0-.53.07-.8.37-.89.93-.04.14-.04.28,0,.41-.01.08,0,.16.07.21,0,.08,0,.16.09.21.03.12.1.19.21.22h0c.66.45,2.11.4,2.74-.08h0ZM9.82,4.41c-.29.54-.45,1.13-.49,1.74-.02.09-.03.19-.05.28-.01.15-.02.29-.04.44-.15.01-.3.04-.45.04-1.31,0-2.61,0-3.92,0-.61,0-1.22.03-1.71.49-.49.37-.69.9-.8,1.47-.04.23-.03.37.29.35.66-.03,1.32-.02,1.98-.02.51,0,1.02,0,1.54,0,.51,0,1.02,0,1.54,0,1.54,0,3.07,0,4.61,0,1.54,0,3.07,0,4.61,0,.51,0,1.02,0,1.54,0,.51,0,1.02,0,1.54,0,.92,0,1.84.01,2.76.02.16,0,.33.05.32-.24-.06-1.02-.86-1.96-1.89-2.01-1.37-.08-2.75-.06-4.13-.06-.82,0-.82.01-.95-.76-.07-.9-.36-1.73-.89-2.46-.74-1.03-2-1.46-3.2-1.14-.39.01-.73.16-1.02.42-.29.13-.49.35-.67.6-.22.24-.4.51-.49.83ZM4.73,18.44c.38,0,.75,0,1.13,0,1.02-.17,1.39-1.03.81-1.86-.61-.63-2.32-.64-2.94-.01-.01.01,0,.03-.01.05-.32.41-.3.86-.09,1.28.22.43.62.59,1.11.55ZM18.45,13.83c.51,0,1.03,0,1.54,0,.58,0,1.2.17,1.64-.4.3-.25.32-.59.27-.93-.1-.67-.52-.96-1.39-.96-2.65,0-5.31,0-7.96-.01-.7,0-1.4-.02-2.09,0-.97.04-1.47.79-1.12,1.65.19.47.67.68,1.44.64.51,0,1.02,0,1.53,0,.51,0,1.03,0,1.54,0,.51,0,1.02,0,1.53,0,.51,0,1.03,0,1.54,0,.51,0,1.02,0,1.53,0ZM17.02,18.44h1.44c.55,0,1.09,0,1.64,0,.24,0,.48.04.71.01.48-.05.88-.23,1.04-.75.28-.89-.23-1.55-1.24-1.56-1.84-.01-3.68,0-5.52,0-1.53,0-3.06,0-4.59.01-.69,0-.96.2-1.17.76-.26.6.09,1.23.51,1.41.34.15.68.15,1.04.11.48,0,.96,0,1.44,0,.55,0,1.09,0,1.64,0h1.44c.55,0,1.09,0,1.64,0Z" style="fill: #fff; stroke-width: 0px;"/>
  <path d="M17.89,27.43c.48.35.73.35,1.1-.05.36-.38.7-.79,1.05-1.18.97-1.02,1.93-2.05,2.84-3.12.1-.04.15-.11.18-.21.45-.41.85-.86,1.22-1.34.03-.04.07-.07.1-.11.52-.51,1.02-1.05,1.47-1.62.16-.11.29-.25.39-.42.14-.14.29-.28.42-.43.33-.41.73-.51,1.21-.29.41.34.82.68,1.23,1.02.16.19.33.38.49.57.23.4,0,.72-.2,1.04-.14.15-.28.3-.42.45-.27.2-.48.46-.68.72-.09.1-.18.19-.27.29-.02.03-.04.05-.06.08-.21.15-.37.34-.52.55l-.58.62c-.09.1-.18.19-.27.29-.02.03-.04.05-.06.08-.2.15-.37.33-.51.54-.34.31-.66.63-.93,1-.24.18-.44.4-.6.65-.17.1-.29.25-.4.42-.09.1-.18.19-.27.29-.08.03-.14.09-.16.18-.27.22-.5.47-.71.75-.28.23-.52.49-.73.79-.31.25-.57.54-.81.86-.12.08-.24.17-.29.31-.06.06-.11.12-.17.19-.08.03-.14.09-.16.18-.46.42-.87.88-1.27,1.36-.09.03-.14.09-.16.18-.3.22-.5.59-.91.66-.13-.04-.26-.08-.39-.12-.11-.11-.21-.21-.32-.32,0,0,0,0,0,0-.25-.33-.52-.64-.83-.92-.09-.17-.21-.31-.37-.42-.4-.46-.81-.91-1.21-1.37,0,0,0,0,0,0-.08-.09-.17-.17-.25-.26-.03-.04-.06-.07-.09-.11-.35-.45-.72-.87-1.13-1.26-.04-.13-.14-.2-.24-.27-.4-.44-.8-.89-1.2-1.33-.02-.1-.09-.16-.17-.2-.14-.17-.28-.33-.42-.5-.25-.31-.63-.56-.55-1.04.33-.56.84-.96,1.28-1.41.27-.28.62-.3.99-.23.13.11.27.23.4.34l.08.08c.29.3.57.6.86.9.67.76,1.38,1.48,2.11,2.18.3.32.6.64.9.96h0Z" style="fill: #fff; stroke-width: 0px;"/>
</svg>