<?xml version="1.0" encoding="UTF-8"?>
<svg id="Capa_1" data-name="Capa 1" xmlns="http://www.w3.org/2000/svg" viewBox="0 0 35.24 37.93">
  <path d="M16.14,36c-1.65,0-3.3.08-4.94-.03-1.17-.08-2,.27-2.76,1.17-.9,1.07-.96,1.02-1.97.04-2.04-1.98-4.06-3.98-6.11-5.95-.43-.41-.53-.64-.04-1.11,1.68-1.6,3.29-3.29,4.97-4.9,2.49-2.36,5.41-3.02,8.67-1.99.88.28,1.74.41,2.65.4,1.91-.03,3.81-.02,5.72,0,1.59,0,2.62.95,2.6,2.36-.01,1.35-1.03,2.3-2.56,2.33-1.32.02-2.65.01-3.97,0-.65,0-1.23.18-1.22.91,0,.74.59.9,1.24.9,1.32,0,2.65.02,3.97,0,2.37-.06,3.93-1.37,4.39-3.7.07-.35.22-.58.44-.82,1.21-1.35,2.4-2.71,3.61-4.05,1.08-1.19,2.57-1.38,3.61-.47,1.05.91,1.05,2.49-.02,3.71-2.63,3.02-5.28,6.03-7.9,9.06-1.27,1.47-2.86,2.15-4.78,2.14-1.87,0-3.75,0-5.62,0Z" style="fill: #fff; stroke-width: 0px;"/>
  <path d="M26.52,19.29c-.61-.03-.99-.4-1.4-.71-.82-.61-2.59.07-2.75,1.07-.29,1.74-1.46,2.41-3.14,1.8-.7-.26-.77-.89-.89-1.49-.26-1.41-1.84-2.06-3.04-1.25-1.23.84-3.14.02-3.4-1.45-.11-.65.31-1.09.63-1.56.65-.93-.04-2.62-1.16-2.84-1.68-.33-2.26-1.36-1.71-3,.25-.75.88-.86,1.54-.96,1.35-.2,2.05-1.85,1.27-2.97-.88-1.26-.16-3.08,1.35-3.43.7-.16,1.15.31,1.65.65.96.66,2.65-.07,2.83-1.22.25-1.63,1.84-2.39,3.3-1.61.66.35.64,1,.75,1.59.22,1.19,1.89,1.89,2.9,1.18,1.32-.93,2.99-.31,3.45,1.28.2.7-.25,1.16-.6,1.66-.69,1,.02,2.69,1.23,2.87,1.57.24,2.35,2.01,1.48,3.35-.35.54-.93.53-1.45.64-1.35.27-2.01,1.85-1.23,2.97.89,1.27.16,3.06-1.38,3.4-.09.02-.19.03-.23.04ZM20.31,14.52c2.08,0,3.67-1.6,3.66-3.68,0-2.05-1.68-3.7-3.71-3.67-1.99.03-3.62,1.68-3.64,3.66-.02,2.03,1.64,3.69,3.69,3.69Z" style="fill: #fff; stroke-width: 0px;"/>
</svg>