<?xml version="1.0" encoding="UTF-8"?>
<svg id="Capa_1" data-name="Capa 1" xmlns="http://www.w3.org/2000/svg" viewBox="0 0 40.72 33.63">
  <path d="M20.34,0c.45,0,.86.11,1.26.33,5.88,3.18,11.76,6.36,17.65,9.53.91.49,1.48,1.2,1.47,2.26,0,1.06-.59,1.75-1.5,2.24-5.86,3.15-11.72,6.32-17.57,9.48-.82.44-1.64.49-2.46.04-5.91-3.19-11.83-6.38-17.73-9.57C.02,13.54-.41,12.01.42,10.75c.29-.44.72-.72,1.18-.96,4.9-2.64,9.8-5.29,14.71-7.94.93-.5,1.86-1,2.79-1.51C19.48.13,19.89,0,20.34,0Z" style="fill: #fff; stroke-width: 0px;"/>
  <path d="M0,21.53c.03-.86.37-1.59,1.14-2.03,1.11-.64,2.25-1.24,3.37-1.87.2-.11.34-.02.5.06,3.48,1.88,6.96,3.76,10.44,5.64,1.02.55,2.05,1.1,3.07,1.66,1.24.67,2.48.67,3.72,0,2.8-1.51,5.6-3.03,8.41-4.54,1.7-.92,3.4-1.83,5.1-2.75.21-.11.37-.12.58,0,1.03.57,2.07,1.12,3.1,1.69.85.47,1.31,1.2,1.3,2.17-.01.96-.48,1.67-1.32,2.12-5.96,3.22-11.92,6.44-17.89,9.66-.76.41-1.54.4-2.3,0-5.95-3.21-11.9-6.42-17.85-9.63-.85-.46-1.31-1.17-1.36-2.16Z" style="fill: #fff; stroke-width: 0px;"/>
</svg>